<svg width="57" height="58" viewBox="0 0 57 58" fill="none" xmlns="http://www.w3.org/2000/svg">
<path d="M50.2143 0.539993H6.78571C3.04 0.539993 0 3.57999 0 7.32571V50.7543C0 54.5 3.04 57.54 6.78571 57.54H50.2143C53.96 57.54 57 54.5 57 50.7543V7.32571C57 3.57999 53.96 0.539993 50.2143 0.539993ZM17.6429 22.2543V48.04H9.5V22.2543H17.6429ZM9.5 14.7493C9.5 12.8493 11.1286 11.3971 13.5714 11.3971C16.0143 11.3971 17.5479 12.8493 17.6429 14.7493C17.6429 16.6493 16.1229 18.1828 13.5714 18.1828C11.1286 18.1828 9.5 16.6493 9.5 14.7493ZM47.5 48.04H39.3571C39.3571 48.04 39.3571 35.4729 39.3571 34.4686C39.3571 31.7543 38 29.04 34.6071 28.9857H34.4986C31.2143 28.9857 29.8571 31.7814 29.8571 34.4686C29.8571 35.7036 29.8571 48.04 29.8571 48.04H21.7143V22.2543H29.8571V25.7286C29.8571 25.7286 32.4764 22.2543 37.7421 22.2543C43.13 22.2543 47.5 25.9593 47.5 33.4643V48.04Z" fill="white"/>
</svg>
