<?xml version="1.0" encoding="UTF-8"?>
<svg id="Capa_1" data-name="Capa 1" xmlns="http://www.w3.org/2000/svg" viewBox="0 0 93.14 110.24">
  <defs>
    <style>
      .cls-1 {
        fill: #ffbe41;
      }

      .cls-1, .cls-2 {
        stroke-width: 0px;
      }

      .cls-2, .cls-3 {
        fill: none;
      }

      .cls-3 {
        stroke: #ffbe41;
        stroke-miterlimit: 10;
        stroke-width: 2px;
      }
    </style>
  </defs>
  <path class="cls-2" d="M37.83,102.72l-4.94-3v-11.27l-4.89-2.91-4.83-2.88-4.8-2.85-4.74-2.83v11.06l-4.71-2.86-4.67-2.82v.3l38.55,23.06-4.98-3.01ZM23.18,71.51l4.83,2.82,4.89,2.86v-11.27l-4.89-2.8-4.83-2.77-4.8-2.75-4.74-2.72v11.05l4.74,2.77,4.8,2.8Z"/>
  <polygon class="cls-2" points="42.81 105.73 4.26 82.67 4.26 82.37 8.92 85.19 13.63 88.05 13.63 76.99 18.37 79.82 23.18 82.67 28.01 85.55 32.9 88.46 32.9 99.72 37.83 102.72 42.81 105.73"/>
  <g>
    <polygon class="cls-2" points="35.23 84.63 35.23 95.89 30.34 92.94 25.51 90 20.71 87.1 20.71 87.09 15.96 84.22 15.96 73.16 20.71 75.99 25.51 78.84 30.34 81.72 35.23 84.63"/>
    <polygon class="cls-2" points="35.23 62.09 35.23 73.36 30.34 70.5 25.51 67.68 20.71 64.88 15.96 62.1 15.96 51.05 20.71 53.77 25.51 56.52 30.34 59.29 35.23 62.09"/>
    <path class="cls-1" d="M40.17,53.6l-4.94-2.77-4.89-2.75-4.83-2.72-4.8-2.7h0s-4.74-2.67-4.74-2.67h0s-4.71-2.65-4.71-2.65h0s-4.67-2.63-4.67-2.63v43.82l4.67,2.82,4.71,2.86v-11.06l4.74,2.83,4.8,2.85,4.83,2.88,4.89,2.91v11.27l4.94,3,4.98,3.01v-45.5l-4.98-2.8ZM35.23,73.36l-4.89-2.86-4.83-2.82-4.8-2.8-4.74-2.77v-11.05l4.74,2.72,4.8,2.75,4.83,2.77,4.89,2.8v11.27Z"/>
    <polyline class="cls-2" points="35.23 90.26 30.34 87.32 25.51 84.42 20.71 81.54 15.96 78.69"/>
    <polyline class="cls-2" points="15.96 56.58 20.71 59.32 25.51 62.1 30.34 64.9 35.23 67.73"/>
  </g>
  <g>
    <polygon class="cls-2" points="53.73 98.32 52.8 98.88 52.8 98.89 47.82 101.9 47.82 62.09 47.83 62.09 47.83 101.76 52.8 98.86 53.73 98.32"/>
    <polygon class="cls-2" points="77 51.05 77 62.11 72.25 64.89 67.46 67.68 62.62 70.51 57.73 73.37 57.73 62.09 62.62 59.29 67.46 56.52 72.25 53.77 77 51.05"/>
    <polygon class="cls-2" points="67.46 78.84 72.25 75.99 72.25 87.1 67.46 90 62.62 92.94 57.73 95.89 57.73 84.64 62.62 81.72 67.46 78.84"/>
    <polygon class="cls-2" points="86.37 67.59 86.37 78.54 81.7 81.37 81.7 70.37 86.37 67.59"/>
    <line class="cls-2" x1="47.83" y1="96.21" x2="47.82" y2="96.22"/>
    <polyline class="cls-2" points="57.73 90.27 62.62 87.33 67.46 84.42 72.25 81.55"/>
    <line class="cls-2" x1="86.37" y1="73.07" x2="81.7" y2="75.87"/>
    <line class="cls-2" x1="47.83" y1="90.52" x2="47.82" y2="90.53"/>
    <line class="cls-2" x1="47.83" y1="84.83" x2="47.82" y2="84.84"/>
    <line class="cls-2" x1="47.83" y1="79.15" x2="47.82" y2="79.16"/>
    <line class="cls-2" x1="47.83" y1="73.46" x2="47.82" y2="73.47"/>
    <polyline class="cls-2" points="77 56.58 72.25 59.32 67.46 62.1 62.62 64.9 57.73 67.73"/>
    <line class="cls-2" x1="47.83" y1="67.77" x2="47.82" y2="67.78"/>
    <path class="cls-1" d="M81.7,37.35l-4.71,2.64h0s-4.74,2.68-4.74,2.68l-4.79,2.7-4.84,2.72-4.89,2.74-4.93,2.77-4.99,2.8v5.69h0s0,39.66,0,39.66l4.98-2.9.93-.54,4-2.42v-11.27l4.89-2.92,4.84-2.88,4.79-2.85v11.1l4.74-2.87,4.71-2.85v-11.01l4.67-2.77v-32.87l-4.67,2.63ZM67.46,67.68l-4.84,2.83-4.89,2.86v-11.28l4.89-2.8,4.84-2.77,4.79-2.75,4.74-2.72v11.06l-4.74,2.77-4.79,2.79Z"/>
  </g>
  <g>
    <polygon class="cls-1" points="86.36 30.65 81.27 33.44 76.2 36.22 71.2 38.98 70.88 38.8 66.34 36.17 61.48 33.38 66.44 30.59 61.58 27.78 56.69 24.95 51.82 22.13 46.93 19.32 42.06 22.15 37.25 24.95 32.46 27.75 27.73 30.49 32.51 33.25 37.3 36.02 42.09 38.78 46.88 41.54 51.7 38.85 56.51 41.62 61.17 44.31 61.32 44.4 56.46 47.07 56.38 47.02 51.64 49.72 51.14 50 46.62 52.56 8.09 30.17 46.65 7.67 48.86 9 51.89 10.73 56.81 13.57 61.73 16.43 66.65 19.27 71.59 22.11 81.44 27.79 86.36 30.65"/>
    <polygon class="cls-2" points="56.46 47.07 51.64 49.72 56.38 47.02 56.46 47.07"/>
    <polygon class="cls-2" points="71.2 38.98 66.24 41.7 61.32 44.4 61.17 44.31 56.51 41.62 51.7 38.85 46.88 41.54 42.09 38.78 37.3 36.02 32.51 33.25 27.73 30.49 32.46 27.75 37.25 24.95 42.06 22.15 46.93 19.32 51.82 22.13 56.69 24.95 61.58 27.78 66.44 30.59 61.48 33.38 66.34 36.17 70.88 38.8 71.2 38.98"/>
    <polyline class="cls-2" points="66.34 36.17 61.4 38.91 56.51 41.62"/>
    <polyline class="cls-2" points="61.49 33.37 56.58 36.12 51.71 38.84"/>
    <polyline class="cls-2" points="61.57 27.78 56.63 30.56 51.74 33.32 46.89 36.07 42.09 38.78"/>
    <polyline class="cls-2" points="56.69 24.96 51.78 27.76 46.91 30.53 42.08 33.28 37.3 36.02"/>
    <polyline class="cls-2" points="51.82 22.13 46.92 24.96 42.08 27.75 37.26 30.51 32.51 33.25"/>
    <polyline class="cls-2" points="61.49 33.37 56.63 30.56 51.78 27.76 46.92 24.96 42.06 22.15"/>
    <polyline class="cls-2" points="37.25 24.96 42.08 27.75 46.91 30.53 51.74 33.32 56.58 36.12 61.4 38.91 66.01 41.56 66.24 41.7"/>
    <polyline class="cls-2" points="51.71 38.84 46.89 36.07 42.08 33.28 37.26 30.51 32.46 27.74"/>
  </g>
  <polygon class="cls-3" points="92.14 82.1 46.57 109.08 1 82.1 1 28.14 46.57 1.16 92.14 28.14 92.14 82.1"/>
</svg>