<svg width="57" height="57" viewBox="0 0 57 57" fill="none" xmlns="http://www.w3.org/2000/svg">
<path d="M25.3008 0.203482C12.1642 1.6734 1.59776 12.5508 0.169867 25.7801C-1.25803 39.5973 6.45259 51.9446 18.1613 56.6483C19.0181 56.9423 19.8748 56.3544 19.8748 55.1784V50.4747C19.8748 50.4747 18.7325 50.7687 17.3046 50.7687C13.3065 50.7687 11.593 47.2409 11.3074 45.183C11.0219 44.0071 10.4507 43.1251 9.59396 42.2431C8.73722 41.9492 8.45164 41.9492 8.45164 41.6552C8.45164 41.0672 9.30838 41.0672 9.59396 41.0672C11.3074 41.0672 12.7353 43.1251 13.3065 44.0071C14.7344 46.3589 16.4478 46.9469 17.3046 46.9469C18.4469 46.9469 19.3036 46.6529 19.8748 46.3589C20.1604 44.301 21.0171 42.2431 22.7306 41.0672C16.1623 39.5973 11.3074 35.7755 11.3074 29.3079C11.3074 26.074 12.7353 22.8402 14.7344 20.4884C14.4488 19.9004 14.1632 18.4305 14.1632 16.3726C14.1632 15.1967 14.1632 13.4327 15.02 11.6688C15.02 11.6688 19.0181 11.6688 23.0162 15.4906C24.444 14.9027 26.4431 14.6087 28.4421 14.6087C30.4412 14.6087 32.4402 14.9027 34.1537 15.4906C37.8662 11.6688 42.1499 11.6688 42.1499 11.6688C42.7211 13.4327 42.7211 15.1967 42.7211 16.3726C42.7211 18.7245 42.4355 19.9004 42.1499 20.4884C44.149 22.8402 45.5769 25.7801 45.5769 29.3079C45.5769 35.7755 40.722 39.5973 34.1537 41.0672C35.8672 42.5371 37.0095 45.183 37.0095 47.8288V55.4724C37.0095 56.3544 37.8662 57.2363 39.0085 56.9423C49.575 52.5326 57 41.9492 57 29.6019C57 11.9628 42.4355 -1.8544 25.3008 0.203482Z" fill="white"/>
</svg>
